<?xml version="1.0" standalone="no"?>
<!DOCTYPE svg PUBLIC "-//W3C//DTD SVG 20010904//EN"
 "http://www.w3.org/TR/2001/REC-SVG-20010904/DTD/svg10.dtd">
<svg version="1.0" xmlns="http://www.w3.org/2000/svg"
 width="250.000000pt" height="250.000000pt" viewBox="0 0 250.000000 250.000000"
 preserveAspectRatio="xMidYMid meet">

<g transform="translate(0.000000,250.000000) scale(0.100000,-0.100000)"
fill="#000000" stroke="none">
<path d="M1139 2490 c-77 -7 -214 -35 -258 -51 -22 -9 -20 -12 45 -58 81 -57
204 -183 223 -229 16 -38 27 -41 35 -9 3 12 14 32 25 44 11 11 18 23 15 26
-21 21 227 166 262 153 8 -3 13 -2 10 2 -3 5 20 20 50 35 29 15 54 31 54 35 0
18 -293 66 -370 60 -8 0 -49 -4 -91 -8z"/>
<path d="M1624 2421 c53 -58 96 -403 62 -498 l-14 -40 49 8 c27 4 113 7 192 5
117 -2 162 -8 259 -32 137 -34 137 -34 87 -129 -35 -67 -65 -102 -72 -82 -2 6
-2 1 0 -13 4 -21 -15 -44 -123 -148 -101 -97 -125 -125 -114 -133 12 -7 11
-10 -7 -15 -18 -5 -42 -34 -28 -34 9 0 50 25 56 34 18 24 224 -124 224 -161 0
-11 6 -17 16 -15 15 2 68 -56 193 -212 47 -58 46 -59 71 94 25 144 16 356 -19
496 -52 209 -153 395 -299 550 -139 147 -294 252 -470 319 -81 30 -85 30 -63
6z"/>
<path d="M684 2357 c-123 -64 -216 -132 -314 -231 l-74 -76 49 0 c139 0 316
-34 367 -70 l26 -19 -9 32 c-24 83 0 236 57 364 15 35 19 53 11 53 -7 -1 -57
-24 -113 -53z"/>
<path d="M965 2281 c-3 -5 -1 -12 5 -16 5 -3 10 1 10 9 0 18 -6 21 -15 7z"/>
<path d="M1371 2281 c-8 -6 -9 -11 -3 -15 6 -3 14 -1 17 5 9 14 2 20 -14 10z"/>
<path d="M1274 2149 c-11 -18 -34 -81 -34 -94 1 -5 6 -3 13 5 7 8 21 22 32 30
18 14 19 14 7 -2 -8 -10 -12 -23 -9 -30 4 -8 6 -7 6 5 1 9 6 17 11 17 15 0 12
43 -3 65 -12 15 -15 16 -23 4z m19 -14 c4 -8 3 -16 -1 -19 -4 -3 -9 4 -9 15
-2 23 3 25 10 4z"/>
<path d="M1146 2086 c4 -11 0 -16 -11 -16 -9 0 -13 -5 -9 -11 9 -15 7 -98 -5
-148 -5 -22 -6 -43 -3 -46 4 -3 8 -45 10 -92 3 -96 -9 -120 -41 -80 -13 17
-12 11 5 -26 18 -39 24 -45 30 -30 4 10 5 0 1 -22 -9 -56 -22 -67 -62 -48 -28
14 -33 14 -49 1 -9 -8 -24 -19 -32 -23 -13 -8 -13 -7 -1 8 12 15 10 17 -26 17
-21 0 -49 7 -61 16 -12 8 -26 13 -31 9 -5 -3 -12 3 -14 12 -4 15 -5 14 -6 -3
-1 -16 12 -26 59 -47 33 -14 60 -31 60 -37 0 -6 -4 -9 -8 -6 -4 2 -13 -4 -20
-15 -7 -10 -8 -19 -3 -19 5 0 12 6 14 13 3 7 6 5 6 -5 1 -26 14 -22 33 11 16
30 65 68 74 59 2 -3 -5 -16 -17 -29 -11 -13 -18 -18 -14 -11 11 21 -14 13 -25
-8 -8 -16 -8 -24 3 -35 17 -16 49 -14 55 5 3 8 0 10 -8 5 -9 -5 -11 -4 -6 4 4
6 11 9 16 6 5 -3 16 7 24 23 8 16 32 43 52 59 l36 29 1 114 c2 139 -13 369
-24 376 -5 3 -6 -2 -3 -10z"/>
<path d="M290 2030 c-9 -6 -10 -10 -3 -10 6 0 15 5 18 10 8 12 4 12 -15 0z"/>
<path d="M1020 1992 c0 -7 5 -12 10 -12 6 0 10 -11 10 -23 0 -25 32 -62 43
-51 3 4 0 18 -7 33 -17 31 -56 69 -56 53z"/>
<path d="M380 1975 c-8 -9 -8 -15 -2 -15 12 0 26 19 19 26 -2 2 -10 -2 -17
-11z"/>
<path d="M1537 1959 c7 -7 15 -10 18 -7 3 3 -2 9 -12 12 -14 6 -15 5 -6 -5z"/>
<path d="M198 1913 c-14 -21 -33 -53 -42 -72 l-18 -33 49 7 c80 11 112 -13 58
-43 -11 -6 -15 -12 -8 -12 7 0 10 -6 7 -13 -3 -8 -17 -12 -37 -10 -28 2 -29 2
-7 -5 21 -7 22 -9 8 -15 -10 -3 -15 -12 -12 -21 7 -18 -32 -59 -49 -51 -7 4
-4 0 6 -8 20 -16 22 -33 5 -43 -7 -4 -8 -3 -4 4 4 7 2 12 -3 12 -6 0 -11 -10
-11 -22 0 -13 -4 -18 -8 -12 -11 16 -37 23 -53 13 -11 -7 -11 -9 4 -9 9 0 17
-5 17 -11 0 -5 4 -8 8 -5 4 2 9 -4 9 -15 1 -10 -3 -19 -8 -19 -6 0 -7 -4 -4
-10 3 -5 2 -10 -3 -10 -5 0 -15 11 -22 25 -8 14 -18 24 -24 22 -12 -4 -47
-169 -43 -199 1 -14 20 -4 83 45 44 34 130 89 191 121 94 51 109 62 97 74 -8
7 -14 20 -14 28 0 8 -3 14 -8 14 -13 0 -44 68 -37 81 5 7 4 10 -2 6 -12 -7
-36 40 -27 54 3 5 -6 23 -20 40 -14 17 -27 38 -28 47 -2 26 -4 35 -15 60 -9
24 -9 23 -35 -15z"/>
<path d="M700 1940 c0 -5 5 -10 11 -10 5 0 7 5 4 10 -3 6 -8 10 -11 10 -2 0
-4 -4 -4 -10z"/>
<path d="M733 1934 c0 -8 9 -14 20 -14 10 0 17 5 15 12 -6 16 -35 18 -35 2z"/>
<path d="M653 1895 c0 -9 4 -14 9 -13 5 2 10 8 10 13 0 5 -5 11 -10 13 -5 1
-9 -4 -9 -13z"/>
<path d="M1923 1869 c3 -9 0 -23 -6 -30 -7 -8 -3 -6 8 3 16 15 17 20 6 30 -11
11 -13 10 -8 -3z"/>
<path d="M1045 1860 c-3 -5 -1 -10 4 -10 6 0 11 5 11 10 0 6 -2 10 -4 10 -3 0
-8 -4 -11 -10z"/>
<path d="M1026 1805 c14 -33 28 -66 31 -73 4 -10 8 -11 13 -2 8 13 -10 60 -22
60 -5 0 -8 6 -8 14 0 8 -9 24 -20 37 -18 21 -17 16 6 -36z"/>
<path d="M1460 1835 c0 -24 2 -26 15 -15 9 7 12 16 8 19 -4 4 -11 10 -15 15
-5 5 -8 -3 -8 -19z"/>
<path d="M2062 1856 c4 -5 3 -15 -3 -22 -13 -16 -4 -64 13 -64 6 0 20 -7 30
-17 14 -13 18 -13 20 -2 0 8 2 19 3 24 2 6 3 16 4 23 0 7 5 11 10 7 5 -3 12
-1 16 5 3 5 -3 10 -14 10 -23 0 -54 -27 -46 -41 4 -5 -1 -6 -9 -3 -18 7 -21
35 -6 50 8 8 5 15 -7 25 -10 7 -15 9 -11 5z"/>
<path d="M605 1840 c4 -6 11 -8 16 -5 14 9 11 15 -7 15 -8 0 -12 -5 -9 -10z"/>
<path d="M1540 1827 c-24 -19 -196 -325 -187 -333 6 -7 106 155 137 221 17 39
44 82 58 98 26 27 20 37 -8 14z"/>
<path d="M845 1800 c36 -44 46 -52 53 -45 4 3 -1 11 -11 16 -9 6 -17 20 -18
32 0 12 -3 16 -6 9 -4 -10 -8 -10 -21 0 -11 8 -10 4 3 -12z"/>
<path d="M1684 1792 c4 -3 14 -7 22 -8 9 -1 13 0 10 4 -4 3 -14 7 -22 8 -9 1
-13 0 -10 -4z"/>
<path d="M580 1783 c0 -5 7 -17 15 -27 9 -12 12 -28 9 -40 -6 -18 -5 -19 10
-7 11 9 16 10 16 2 0 -7 5 -9 10 -6 6 3 14 -5 20 -19 9 -25 19 -31 49 -27 7 2
10 -2 7 -8 -7 -10 13 -24 61 -41 l28 -10 -24 20 c-15 13 -21 26 -17 37 6 17 5
17 -8 0 -13 -17 -14 -16 -19 3 -3 11 -9 19 -14 18 -12 -4 -48 25 -56 44 -4 11
-15 17 -29 15 -12 -1 -23 3 -24 8 -2 19 -16 45 -25 45 -5 0 -9 -3 -9 -7z"/>
<path d="M1845 1760 c3 -5 8 -10 11 -10 2 0 4 5 4 10 0 6 -5 10 -11 10 -5 0
-7 -4 -4 -10z"/>
<path d="M1340 1740 c-6 -11 -9 -26 -7 -33 3 -7 10 1 16 17 14 35 7 47 -9 16z"/>
<path d="M1957 1743 c-4 -3 -7 -11 -7 -17 0 -6 5 -5 12 2 6 6 9 14 7 17 -3 3
-9 2 -12 -2z"/>
<path d="M2038 1723 c-10 -3 -18 -9 -18 -14 0 -6 4 -8 9 -4 6 3 8 -7 6 -22 -2
-16 -4 -34 -4 -41 -1 -7 -5 -10 -11 -7 -5 3 -10 2 -10 -4 0 -6 -7 -8 -15 -5
-9 4 -15 0 -15 -10 0 -10 8 -15 23 -13 24 2 29 5 70 40 25 23 38 60 18 55 -5
-2 -16 4 -23 13 -7 9 -21 14 -30 12z"/>
<path d="M2133 1723 c-7 -2 -10 -10 -7 -18 3 -7 0 -23 -6 -36 -11 -19 -10 -21
5 -16 9 4 21 7 25 7 5 0 14 8 19 19 8 14 6 22 -7 33 -9 9 -22 13 -29 11z"/>
<path d="M2190 1695 c0 -8 2 -15 4 -15 2 0 6 7 10 15 3 8 1 15 -4 15 -6 0 -10
-7 -10 -15z"/>
<path d="M1920 1674 c0 -10 -6 -14 -14 -11 -8 3 -17 0 -20 -8 -3 -9 1 -12 15
-10 10 2 19 -1 19 -6 0 -6 4 -8 9 -4 6 3 14 -3 20 -12 5 -10 12 -16 14 -13 8
9 -5 70 -14 64 -5 -3 -7 -10 -4 -15 4 -5 1 -9 -5 -9 -7 0 -9 8 -5 20 4 11 2
20 -4 20 -6 0 -11 -7 -11 -16z"/>
<path d="M1835 1669 c-4 -6 -5 -12 -2 -15 2 -3 7 2 10 11 7 17 1 20 -8 4z"/>
<path d="M1792 1643 c-5 -10 -8 -26 -7 -35 2 -10 -1 -18 -6 -18 -5 0 -7 11 -5
25 6 33 -2 32 -15 -2 -6 -16 -13 -23 -16 -17 -4 13 -83 -5 -83 -19 0 -4 -4 -5
-10 -2 -5 3 -10 2 -10 -4 0 -5 -37 -30 -81 -56 -58 -33 -78 -50 -68 -55 7 -5
19 -5 25 1 7 5 22 12 35 14 12 3 26 10 30 17 4 6 16 12 26 13 24 3 123 34 147
46 12 7 16 7 12 0 -4 -5 -1 -13 6 -17 7 -4 10 -4 6 1 -4 4 -3 14 4 22 9 11 14
11 29 -3 16 -15 17 -14 12 8 -6 21 -5 22 10 9 12 -9 17 -10 17 -2 0 7 4 10 9
7 5 -3 14 8 20 24 6 18 6 30 0 30 -5 0 -9 7 -9 15 0 29 -19 15 -23 -17 -4 -31
-4 -31 -12 -10 -6 18 -10 21 -17 10 -7 -9 -8 -7 -5 10 6 26 -8 29 -21 5z"/>
<path d="M1300 1596 c-15 -39 -12 -46 6 -13 9 16 13 31 10 34 -3 3 -10 -6 -16
-21z"/>
<path d="M980 1597 c0 -19 16 -31 24 -18 3 5 -1 14 -9 21 -12 10 -15 10 -15
-3z"/>
<path d="M375 1538 c-14 -16 -23 -34 -19 -39 3 -5 -2 -9 -11 -9 -9 0 -15 -6
-12 -12 2 -7 13 -12 25 -11 12 2 22 -5 25 -17 3 -11 10 -20 16 -20 6 0 8 6 5
14 -3 8 3 16 15 19 23 6 27 28 10 59 -8 15 -8 22 1 28 8 5 5 9 -9 13 -15 4
-28 -3 -46 -25z"/>
<path d="M1951 1554 c0 -11 3 -14 6 -6 3 7 2 16 -1 19 -3 4 -6 -2 -5 -13z"/>
<path d="M80 1550 c0 -5 5 -10 10 -10 6 0 10 5 10 10 0 6 -4 10 -10 10 -5 0
-10 -4 -10 -10z"/>
<path d="M530 1551 c0 -5 6 -14 14 -20 11 -9 16 -9 21 0 4 6 1 15 -6 20 -18
11 -29 11 -29 0z"/>
<path d="M490 1500 c0 -5 7 -10 16 -10 8 0 12 5 9 10 -3 6 -10 10 -16 10 -5 0
-9 -4 -9 -10z"/>
<path d="M546 1487 c7 -19 31 -25 64 -17 25 6 25 7 -5 12 -16 3 -38 9 -48 13
-13 5 -16 3 -11 -8z"/>
<path d="M650 1464 c0 -8 5 -12 10 -9 6 4 8 11 5 16 -9 14 -15 11 -15 -7z"/>
<path d="M690 1466 c0 -9 40 -13 46 -5 3 5 -6 9 -20 9 -14 0 -26 -2 -26 -4z"/>
<path d="M830 1460 c-25 -4 -39 -8 -32 -8 23 -3 12 -30 -18 -44 -16 -7 -30
-19 -30 -26 0 -8 -9 -11 -25 -8 -14 3 -25 0 -25 -6 0 -7 -4 -7 -13 1 -8 6 -17
8 -20 4 -4 -3 -7 -1 -7 5 0 20 -17 13 -23 -9 -5 -18 -8 -19 -29 -8 -13 7 -27
12 -33 10 -5 -2 -32 -5 -60 -7 -64 -4 -64 -4 -37 -14 28 -12 28 -25 0 -26 -13
0 -31 -4 -40 -8 -14 -6 -18 -3 -18 14 0 18 -4 20 -22 14 -28 -8 -24 -5 -32
-29 -6 -22 -20 -23 229 4 147 15 163 14 183 -11 9 -12 30 -35 46 -50 17 -17
23 -28 15 -29 -18 -1 30 -17 56 -18 16 -1 14 3 -11 21 -31 22 -52 67 -61 129
-4 30 0 42 27 73 18 20 30 35 29 34 -2 0 -24 -4 -49 -8z"/>
<path d="M1595 1450 c-3 -5 -1 -10 4 -10 6 0 11 5 11 10 0 6 -2 10 -4 10 -3 0
-8 -4 -11 -10z"/>
<path d="M447 1436 c-9 -24 37 -66 64 -59 16 5 19 8 9 11 -18 6 -30 22 -30 42
0 10 3 11 8 4 9 -13 42 -14 42 -1 0 5 -6 7 -14 4 -8 -3 -17 -3 -20 1 -14 13
-54 12 -59 -2z"/>
<path d="M1450 1421 c0 -5 5 -13 10 -16 6 -3 10 -2 10 4 0 5 -4 13 -10 16 -5
3 -10 2 -10 -4z"/>
<path d="M1537 1414 c-3 -3 -3 -12 0 -20 4 -11 9 -12 19 -3 8 6 11 15 8 20 -6
10 -18 12 -27 3z"/>
<path d="M386 1394 c-9 -8 -20 -13 -25 -9 -5 3 -12 1 -15 -4 -6 -9 15 -21 37
-21 16 0 39 38 28 45 -5 3 -16 -2 -25 -11z"/>
<path d="M1338 1343 c5 -82 26 -105 30 -35 3 49 -11 102 -26 102 -4 0 -6 -30
-4 -67z"/>
<path d="M240 1354 c0 -16 16 -19 25 -4 4 7 12 7 25 0 13 -7 21 -7 25 0 3 5
-2 11 -12 11 -10 1 -28 3 -40 4 -14 1 -23 -3 -23 -11z"/>
<path d="M1245 1325 c8 -60 -16 -144 -56 -190 -34 -38 -50 -43 -69 -20 -11 13
-9 19 8 38 27 29 48 80 57 140 6 39 5 46 -7 42 -8 -3 -20 -29 -27 -58 -13 -62
-45 -117 -66 -117 -19 0 -46 53 -40 77 4 12 2 12 -6 -3 -6 -12 -23 -27 -38
-35 -15 -8 -73 -44 -128 -80 -55 -37 -136 -88 -181 -113 -59 -35 -83 -54 -90
-76 -10 -28 -10 -29 14 -20 13 5 24 7 24 5 0 -3 19 13 42 35 31 31 43 38 50
28 8 -13 15 -6 43 46 5 11 52 48 104 84 52 36 91 60 87 54 -4 -7 0 -22 9 -34
l16 -23 -3 25 c-2 21 1 25 22 25 32 0 30 -29 -5 -85 -29 -47 -34 -69 -5 -25
11 17 28 30 37 30 12 0 18 8 19 23 1 12 2 25 3 28 2 8 61 -29 61 -38 0 -5 -19
-54 -41 -111 -54 -135 -100 -257 -105 -282 -9 -48 -34 -128 -43 -139 -6 -7
-12 -43 -13 -82 -2 -38 -7 -74 -11 -81 -4 -7 -6 -23 -3 -37 3 -14 0 -25 -6
-23 -5 1 -18 -13 -28 -31 -17 -31 -19 -32 -29 -14 -6 11 -7 22 -4 26 3 3 -1
14 -9 23 -9 10 -19 38 -23 63 -19 130 -24 158 -33 193 -6 22 -6 39 -1 43 5 3
7 10 4 15 -3 5 0 6 8 3 9 -3 18 6 26 28 7 18 19 49 27 68 15 33 13 33 -30 -16
-53 -61 -121 -106 -191 -127 -71 -22 -115 -28 -115 -17 0 6 -9 10 -20 10 -11
0 -20 -5 -20 -12 0 -6 -6 -4 -13 6 -10 13 -28 19 -59 20 -26 0 -44 -2 -42 -6
9 -15 -15 -17 -27 -2 -11 14 -14 14 -24 1 -11 -16 -56 -17 -66 -2 -4 6 -3 35
2 65 5 30 11 70 14 89 10 76 87 253 134 309 25 29 73 54 81 42 4 -6 22 -2 45
10 21 11 41 17 46 15 4 -3 10 -1 14 4 3 6 12 8 20 4 8 -3 15 -1 15 4 0 5 6 10
13 11 6 0 23 4 37 8 14 4 40 7 58 7 17 0 32 4 32 8 0 4 7 10 16 13 15 6 15 4
3 -11 -11 -14 -9 -14 9 2 13 11 19 21 13 23 -6 2 -11 10 -11 17 0 16 -27 28
-35 15 -4 -6 -4 -14 0 -19 8 -14 -33 -34 -61 -28 -13 2 -24 1 -24 -3 0 -12
-101 -30 -118 -21 -12 6 -24 3 -41 -10 -13 -10 -34 -19 -47 -19 -12 0 -25 -4
-29 -9 -3 -6 -14 -8 -25 -6 -12 2 -18 0 -15 -5 9 -14 -43 -24 -59 -11 -7 6
-17 7 -21 3 -5 -4 -5 2 -1 12 5 15 4 16 -7 8 -9 -8 -17 -8 -27 0 -13 8 -12 9
2 5 9 -3 19 1 22 8 3 10 -10 21 -41 35 -25 11 -49 18 -53 15 -4 -3 -13 1 -19
9 -6 7 -22 12 -35 11 -16 -2 -40 11 -75 42 l-51 45 0 -95 c0 -231 92 -499 238
-693 244 -324 610 -508 1007 -507 511 2 963 314 1155 796 12 32 21 60 19 62
-3 2 -58 -15 -124 -38 -112 -38 -129 -41 -254 -45 -84 -3 -155 0 -188 7 -29 7
-56 12 -59 11 -12 -3 -23 24 -13 31 5 3 -4 6 -20 6 l-30 0 20 -28 c58 -82 62
-213 10 -368 -35 -104 -95 -227 -116 -234 -7 -3 -33 7 -57 23 -23 16 -60 41
-80 55 -65 43 -240 219 -256 255 l-15 35 -12 -72 c-16 -93 -55 -161 -135 -243
-100 -102 -129 -122 -165 -114 -30 6 -55 28 -55 50 0 6 8 22 18 35 18 23 74
135 85 171 3 9 3 18 -1 20 -4 2 -5 17 -1 33 4 17 7 22 8 13 3 -41 21 -13 36
57 13 56 14 79 6 89 -8 9 -7 26 4 62 8 27 15 63 16 79 1 25 3 26 6 7 6 -31 38
-25 39 8 1 13 -5 38 -13 55 -12 25 -12 40 -1 95 11 57 16 65 38 68 37 6 50 21
48 54 -2 26 -4 28 -15 12 -7 -10 -13 -14 -13 -8 0 5 -7 0 -15 -10 -8 -11 -15
-16 -15 -10 1 17 28 46 61 62 45 24 87 87 99 151 12 65 4 131 -17 131 -12 0
-14 -9 -8 -45z m-321 -1217 c-7 -11 -54 33 -54 50 0 8 12 2 29 -14 17 -15 27
-32 25 -36z"/>
<path d="M890 1339 c0 -11 5 -17 10 -14 6 3 10 13 10 21 0 8 -4 14 -10 14 -5
0 -10 -9 -10 -21z"/>
<path d="M1555 1349 c-34 -7 -21 -10 59 -13 29 -1 51 -7 54 -14 2 -7 7 -10 12
-7 4 3 25 -7 45 -21 29 -20 40 -22 46 -12 6 9 19 1 49 -31 37 -39 40 -40 26
-14 -8 17 -33 40 -57 51 l-42 21 41 7 c45 7 57 23 20 25 -13 0 -34 2 -48 4
-53 8 -176 10 -205 4z m178 -33 c4 -10 1 -13 -9 -9 -7 3 -14 9 -14 14 0 14 17
10 23 -5z"/>
<path d="M335 1340 c4 -6 11 -8 16 -5 14 9 11 15 -7 15 -8 0 -12 -5 -9 -10z"/>
<path d="M952 1337 c-9 -11 -10 -17 -2 -22 15 -9 23 -1 18 21 -3 15 -4 16 -16
1z"/>
<path d="M1681 1288 c-1 -9 17 -30 38 -47 46 -37 69 -42 27 -6 -16 14 -32 25
-36 25 -4 0 -12 10 -18 23 -8 16 -11 18 -11 5z"/>
<path d="M2042 1291 c-9 -5 -11 -17 -6 -36 5 -20 4 -26 -5 -21 -6 4 -11 1 -11
-8 0 -17 20 -17 32 -1 4 6 8 -1 9 -15 1 -23 2 -23 15 9 13 29 13 36 -1 57 -18
27 -16 26 -33 15z"/>
<path d="M890 1282 c0 -19 30 -27 43 -12 9 10 9 12 -4 7 -9 -3 -22 0 -28 6 -8
8 -11 8 -11 -1z"/>
<path d="M356 1263 c-6 -14 -5 -15 5 -6 7 7 10 15 7 18 -3 3 -9 -2 -12 -12z"/>
<path d="M445 1270 c-3 -5 1 -10 10 -10 9 0 13 5 10 10 -3 6 -8 10 -10 10 -2
0 -7 -4 -10 -10z"/>
<path d="M1521 1243 c-7 -8 -10 -17 -7 -20 9 -9 29 13 25 25 -2 6 -10 3 -18
-5z"/>
<path d="M387 1234 c-11 -11 3 -24 18 -18 8 4 12 10 9 15 -6 11 -18 12 -27 3z"/>
<path d="M800 1210 c0 -5 5 -10 10 -10 6 0 10 5 10 10 0 6 -4 10 -10 10 -5 0
-10 -4 -10 -10z"/>
<path d="M1321 1182 c-11 -22 -33 -54 -48 -72 l-28 -33 26 6 c25 6 29 1 97
-141 39 -81 74 -158 77 -172 3 -14 20 -41 37 -59 19 -21 28 -39 25 -52 -3 -10
-1 -19 5 -19 5 0 6 -4 3 -10 -3 -6 4 -10 18 -10 14 0 30 -7 37 -15 10 -12 10
-15 -4 -15 -26 0 -19 -30 10 -40 l26 -10 -24 -21 c-16 -14 -19 -22 -10 -26 8
-3 11 -16 7 -41 l-6 -37 21 24 21 24 -5 -29 c-8 -41 2 -68 19 -54 9 8 17 7 28
-5 22 -22 25 -19 24 23 -1 20 2 60 5 87 7 49 7 51 -37 98 -25 26 -45 49 -45
52 0 3 -16 21 -36 40 -21 21 -34 41 -30 50 3 8 0 17 -6 21 -7 4 -8 3 -4 -4 4
-7 5 -12 2 -12 -2 0 -18 22 -35 50 -17 27 -25 47 -18 44 8 -3 12 7 12 31 0 35
-19 47 -41 25 -6 -6 -14 -2 -23 13 -13 20 -13 21 3 8 9 -8 19 -11 22 -8 3 3
-15 25 -39 49 -24 23 -58 69 -76 101 -29 53 -31 61 -17 76 8 9 22 33 31 53 21
51 1 59 -24 10z"/>
<path d="M1570 1170 c8 -5 20 -10 25 -10 6 0 3 5 -5 10 -8 5 -19 10 -25 10 -5
0 -3 -5 5 -10z"/>
<path d="M1666 1124 c21 -15 46 -27 54 -28 8 -1 25 -7 36 -13 12 -7 24 -10 27
-6 4 3 13 0 21 -6 8 -7 17 -8 20 -3 5 8 -20 20 -54 26 -3 1 -10 4 -15 8 -11 7
-117 48 -124 48 -2 0 14 -12 35 -26z"/>
<path d="M1400 1125 c7 -8 17 -15 22 -15 6 0 5 7 -2 15 -7 8 -17 15 -22 15 -6
0 -5 -7 2 -15z"/>
<path d="M975 1089 c-4 -6 -5 -12 -2 -15 2 -3 7 2 10 11 7 17 1 20 -8 4z"/>
<path d="M2020 1078 c0 -5 -4 -6 -10 -3 -5 3 -10 1 -10 -4 0 -15 12 -14 34 2
16 12 16 14 2 14 -9 0 -16 -4 -16 -9z"/>
<path d="M1424 1063 c3 -16 16 -22 16 -8 0 3 0 10 0 15 0 6 -4 10 -9 10 -5 0
-8 -8 -7 -17z"/>
<path d="M1856 1068 c3 -5 10 -6 15 -3 13 9 11 12 -6 12 -8 0 -12 -4 -9 -9z"/>
<path d="M460 1056 c0 -21 21 -31 30 -15 5 7 6 17 4 21 -9 14 -34 9 -34 -6z"/>
<path d="M1481 1057 c2 -1 13 -9 24 -17 19 -14 19 -14 6 3 -7 9 -18 17 -24 17
-6 0 -8 -1 -6 -3z"/>
<path d="M1631 1036 c-7 -8 -8 -17 -3 -20 6 -3 13 1 16 10 9 23 2 28 -13 10z"/>
<path d="M1935 1041 c-3 -6 -1 -11 5 -11 6 0 9 -4 6 -8 -2 -4 4 -9 15 -9 14
-1 19 3 17 15 -4 19 -33 28 -43 13z"/>
<path d="M2073 1008 c0 -7 -3 -23 -7 -35 -4 -14 -3 -23 3 -23 6 0 8 -6 5 -13
-3 -8 5 -13 21 -15 14 -1 25 3 25 8 0 6 5 10 10 10 6 0 9 -15 7 -34 -4 -33 -3
-34 19 -24 13 6 24 14 24 18 0 17 26 4 27 -13 3 -29 24 -39 45 -20 24 22 23
44 -3 50 -14 4 -19 12 -16 24 5 17 -24 37 -45 31 -5 -1 -7 3 -5 10 1 7 -13 13
-33 15 -19 2 -39 8 -44 13 -14 14 -33 12 -33 -2z"/>
<path d="M1415 999 c-10 -15 3 -25 16 -12 7 7 7 13 1 17 -6 3 -14 1 -17 -5z"/>
<path d="M577 985 c-7 -16 8 -29 23 -20 15 9 12 35 -4 35 -8 0 -16 -7 -19 -15z"/>
<path d="M1610 946 c50 -53 105 -91 60 -41 -14 15 -43 41 -65 58 l-40 31 45
-48z"/>
<path d="M1110 955 c0 -8 7 -15 15 -15 8 0 15 7 15 15 0 8 -7 15 -15 15 -8 0
-15 -7 -15 -15z"/>
<path d="M1100 910 c0 -19 11 -26 23 -14 8 8 -3 34 -14 34 -5 0 -9 -9 -9 -20z"/>
<path d="M326 891 c-4 -5 -2 -12 3 -15 5 -4 12 -2 15 3 4 5 2 12 -3 15 -5 4
-12 2 -15 -3z"/>
<path d="M1163 885 c-8 -9 -9 -16 -3 -20 6 -3 13 1 16 10 9 21 2 26 -13 10z"/>
<path d="M529 867 c-14 -19 -14 -26 -4 -40 22 -31 65 -14 65 25 0 16 -3 17
-22 7 -20 -11 -21 -10 -11 3 12 14 8 28 -6 28 -3 0 -13 -11 -22 -23z"/>
<path d="M813 871 c0 -10 7 -17 13 -14 7 3 10 11 7 19 -8 20 -22 17 -20 -5z"/>
<path d="M876 838 c-15 -29 -21 -45 -13 -36 8 10 18 14 22 10 5 -4 5 -1 1 6
-4 6 -3 12 1 12 5 0 9 10 10 22 1 11 8 25 15 29 8 6 9 9 2 9 -7 0 -24 -24 -38
-52z"/>
<path d="M954 879 c-9 -16 2 -22 21 -11 15 8 16 10 1 15 -8 3 -18 2 -22 -4z"/>
<path d="M1261 853 c-1 -24 4 -43 9 -43 12 0 12 37 0 65 -7 15 -9 10 -9 -22z"/>
<path d="M680 850 c0 -11 4 -20 9 -20 11 0 22 26 14 34 -12 12 -23 5 -23 -14z"/>
<path d="M976 843 c-4 -9 -2 -21 4 -27 7 -7 10 -2 10 17 0 31 -5 34 -14 10z"/>
<path d="M1105 850 c3 -5 8 -10 11 -10 2 0 4 5 4 10 0 6 -5 10 -11 10 -5 0 -7
-4 -4 -10z"/>
<path d="M605 829 c-4 -6 -4 -13 -1 -16 3 -4 6 -1 6 6 0 7 5 9 12 5 7 -4 8 -3
4 4 -9 15 -13 15 -21 1z"/>
<path d="M406 793 c-11 -11 -6 -23 9 -23 8 0 15 4 15 9 0 13 -16 22 -24 14z"/>
<path d="M265 779 c-4 -6 -5 -12 -2 -15 7 -7 37 7 37 17 0 13 -27 11 -35 -2z"/>
<path d="M370 780 c0 -5 5 -10 10 -10 6 0 10 5 10 10 0 6 -4 10 -10 10 -5 0
-10 -4 -10 -10z"/>
<path d="M905 760 c-16 -7 -17 -9 -3 -9 9 -1 20 4 23 9 7 11 7 11 -20 0z"/>
<path d="M526 731 c-4 -5 -2 -12 3 -15 5 -4 12 -2 15 3 4 5 2 12 -3 15 -5 4
-12 2 -15 -3z"/>
<path d="M617 724 c-4 -4 -7 -14 -7 -23 0 -11 3 -12 11 -4 6 6 10 16 7 23 -2
6 -7 8 -11 4z"/>
<path d="M1552 704 c10 -10 20 -15 24 -12 3 4 -5 12 -18 18 -22 12 -22 12 -6
-6z"/>
<path d="M320 621 c0 -6 4 -13 10 -16 6 -3 7 1 4 9 -7 18 -14 21 -14 7z"/>
<path d="M916 601 c-4 -5 -2 -12 3 -15 5 -4 12 -2 15 3 4 5 2 12 -3 15 -5 4
-12 2 -15 -3z"/>
<path d="M1260 585 c7 -8 17 -15 22 -15 6 0 5 7 -2 15 -7 8 -17 15 -22 15 -6
0 -5 -7 2 -15z"/>
<path d="M1517 544 c-9 -10 4 -34 19 -34 8 0 14 9 14 20 0 19 -19 27 -33 14z"/>
<path d="M1159 464 c-12 -14 -11 -16 5 -13 11 2 21 10 24 17 5 17 -13 15 -29
-4z"/>
<path d="M940 192 c0 -12 19 -26 26 -19 2 2 -2 10 -11 17 -9 8 -15 8 -15 2z"/>
</g>
</svg>
