<svg version="1.1" id="Layer_1" xmlns="http://www.w3.org/2000/svg" xmlns:xlink="http://www.w3.org/1999/xlink" x="0px" y="0px"
	 width="100%" viewBox="0 0 800 800" enable-background="new 0 0 800 800" xml:space="preserve">
<path fill="#000000" opacity="1.000000" stroke="none" 
	d="
M440.000000,801.000000 
	C293.333344,801.000000 147.166672,801.000000 1.000000,801.000000 
	C1.000000,534.333313 1.000000,267.666656 1.000000,1.000000 
	C267.666656,1.000000 534.333313,1.000000 801.000000,1.000000 
	C801.000000,267.666656 801.000000,534.333313 801.000000,801.000000 
	C680.833313,801.000000 560.666687,801.000000 440.000000,801.000000 
M610.095032,631.426880 
	C623.997620,638.904663 638.943054,643.206787 654.621826,642.784119 
	C688.389771,641.873718 714.611450,626.456726 733.068726,598.435913 
	C746.566833,577.943970 751.123535,555.671082 742.944824,531.743958 
	C739.883301,522.787292 736.236572,514.136902 730.158508,506.502808 
	C728.303650,507.372192 726.810608,508.068115 725.320740,508.770782 
	C682.558899,528.938416 631.381042,520.189148 598.198730,486.848877 
	C576.781067,465.329224 565.621826,439.319122 564.929443,408.903320 
	C564.433899,387.135956 551.802185,370.639404 532.732910,366.901154 
	C506.835144,361.824280 484.676392,379.277069 483.045013,405.718353 
	C482.845734,408.948181 481.448975,412.630310 479.398529,415.098877 
	C476.168457,418.987549 471.415192,419.687927 466.600555,417.746368 
	C461.557770,415.712799 459.067657,410.997681 459.263306,404.215240 
	C460.172241,372.703613 486.666138,345.074677 517.858826,343.109375 
	C550.610291,341.045837 579.946777,363.730896 585.113281,395.505798 
	C586.766174,405.671234 586.451660,416.218384 588.707886,426.213776 
	C603.254822,490.657623 678.234375,516.708923 730.000854,475.561310 
	C770.369385,443.473572 775.468811,385.506561 741.404602,346.784424 
	C730.078430,333.909454 716.018982,325.402588 699.850586,320.182159 
	C694.971802,318.606873 690.579102,316.696869 688.147156,311.674866 
	C685.672424,306.564331 687.910400,302.291443 690.022339,297.940857 
	C710.026917,256.731873 695.619690,206.706680 656.742126,182.753281 
	C652.908569,180.391327 648.735718,178.580078 644.270874,176.281860 
	C644.067078,178.251205 643.971130,179.070007 643.899048,179.890930 
	C639.848633,226.013901 616.505188,258.523132 574.593323,277.802612 
	C561.217468,283.955505 546.886963,286.104187 532.316772,286.692535 
	C524.971619,286.989166 519.562500,281.942444 519.262573,275.083710 
	C518.965759,268.295746 524.117065,263.202789 531.590942,262.813507 
	C534.580688,262.657745 537.567383,262.402039 540.547668,262.111633 
	C592.486084,257.050751 628.850403,207.274704 617.875427,156.278687 
	C605.531372,98.921341 544.841003,67.653854 492.534973,92.362892 
	C460.402618,107.542023 441.879242,133.796066 441.431335,169.264328 
	C440.389709,251.746170 441.158447,334.250763 441.176453,416.746124 
	C441.191772,486.909149 441.006531,557.072754 441.260895,627.234863 
	C441.384766,661.402649 455.788971,688.455933 485.589417,705.481689 
	C529.463562,730.548401 582.128113,715.638855 607.645081,671.978333 
	C610.036255,667.887024 611.864929,663.466919 614.101990,658.898926 
	C611.542236,657.724548 609.668884,657.034180 607.962463,656.053528 
	C599.608887,651.252747 590.597595,647.266724 583.100586,641.364502 
	C555.475098,619.616028 540.889465,590.937256 539.801575,555.600830 
	C539.551086,547.462891 538.040649,539.695984 532.409790,533.311951 
	C524.183655,523.985291 511.313263,520.558289 499.637878,524.605957 
	C487.842316,528.695374 480.599670,538.426880 479.738647,551.343201 
	C479.162323,559.988037 474.221710,565.267334 467.016724,564.937195 
	C459.993530,564.615417 455.669128,559.093262 455.790863,550.601929 
	C456.332092,512.839172 497.343719,487.711121 532.258545,504.065948 
	C553.651245,514.086731 563.022705,531.993042 563.803589,555.057739 
	C564.946533,588.815674 580.536377,613.961365 610.095032,631.426880 
M302.401733,712.966003 
	C328.401398,703.809814 346.723694,686.573425 357.115448,660.987000 
	C362.221008,648.416260 362.354187,635.454224 362.313995,621.965576 
	C361.871307,473.468567 362.044525,324.969727 361.999725,176.471375 
	C361.998199,171.318192 361.694794,166.140259 361.142395,161.015884 
	C354.570251,100.047852 287.514923,63.970829 233.340515,92.507835 
	C196.613846,111.854042 183.428162,145.933212 189.673553,185.569016 
	C196.373871,228.092026 230.716812,256.701904 275.197266,259.087311 
	C283.795410,259.548431 289.215515,264.583099 288.847198,271.766571 
	C288.483124,278.867767 282.999176,283.220001 274.588287,283.082916 
	C220.930634,282.208344 174.616302,242.465561 165.853455,189.708725 
	C164.964828,184.358749 164.438736,178.948578 163.727921,173.438492 
	C162.965118,173.617355 162.458023,173.647079 162.032364,173.848724 
	C117.390091,194.998001 95.100586,247.593033 118.072311,294.234497 
	C123.344574,304.939240 120.115379,312.551483 108.722443,316.285004 
	C104.618370,317.629944 100.557465,319.184692 96.630379,320.979614 
	C55.411140,339.818970 34.842510,385.152222 48.112087,427.917511 
	C62.451115,474.129364 110.247429,496.468262 149.692108,489.284515 
	C191.909317,481.595795 222.192780,445.922272 222.907074,402.805786 
	C223.313248,378.287964 233.800583,359.385315 254.834091,347.016724 
	C275.266357,335.001617 296.572662,334.838043 317.184875,346.488037 
	C338.257050,358.397949 349.110657,377.133087 349.782715,401.339355 
	C349.871216,404.526031 347.797516,408.354187 345.581207,410.882324 
	C342.526428,414.367035 337.993195,414.908752 333.586517,413.015961 
	C328.195068,410.700256 326.291565,406.236450 325.951508,400.618164 
	C324.532227,377.166290 307.409332,360.770538 284.764282,361.013672 
	C262.198059,361.255951 245.885666,378.049591 244.384186,401.535004 
	C243.687271,412.435822 242.647842,423.598969 239.618423,434.019562 
	C222.238312,493.803406 158.133606,528.389221 99.864548,509.856323 
	C93.117844,507.710510 86.638481,504.724182 79.746971,502.014191 
	C78.181824,504.404785 76.515862,506.686249 75.119339,509.122223 
	C57.285904,540.229431 60.186245,579.641785 81.737938,607.413269 
	C102.252731,633.848633 140.416061,649.374268 175.989670,637.395996 
	C213.619019,624.725525 240.643723,597.144958 241.023376,552.716736 
	C241.356339,513.752563 279.411530,488.683807 315.626221,503.130310 
	C334.987274,510.853760 348.655060,530.932312 348.857635,551.948669 
	C348.925995,559.040833 344.259552,564.433044 337.642639,564.907654 
	C331.072052,565.379028 325.761078,560.586914 324.968262,553.504700 
	C324.727600,551.354431 324.501617,549.195740 324.109924,547.070190 
	C321.289795,531.766907 308.094635,521.914795 292.114166,523.137634 
	C276.905060,524.301331 265.449341,536.594543 264.914459,551.926758 
	C263.204681,600.937439 239.903214,635.687439 195.565460,656.451843 
	C193.976669,657.195862 192.428879,658.027405 190.934509,658.781616 
	C206.098694,701.123962 253.281601,728.500000 302.401733,712.966003 
z"/>
<path fill="#767676" opacity="1.000000" stroke="none" 
	d="
M609.767334,631.256470 
	C580.536377,613.961365 564.946533,588.815674 563.803589,555.057739 
	C563.022705,531.993042 553.651245,514.086731 532.258545,504.065948 
	C497.343719,487.711121 456.332092,512.839172 455.790863,550.601929 
	C455.669128,559.093262 459.993530,564.615417 467.016724,564.937195 
	C474.221710,565.267334 479.162323,559.988037 479.738647,551.343201 
	C480.599670,538.426880 487.842316,528.695374 499.637878,524.605957 
	C511.313263,520.558289 524.183655,523.985291 532.409790,533.311951 
	C538.040649,539.695984 539.551086,547.462891 539.801575,555.600830 
	C540.889465,590.937256 555.475098,619.616028 583.100586,641.364502 
	C590.597595,647.266724 599.608887,651.252747 607.962463,656.053528 
	C609.668884,657.034180 611.542236,657.724548 614.101990,658.898926 
	C611.864929,663.466919 610.036255,667.887024 607.645081,671.978333 
	C582.128113,715.638855 529.463562,730.548401 485.589417,705.481689 
	C455.788971,688.455933 441.384766,661.402649 441.260895,627.234863 
	C441.006531,557.072754 441.191772,486.909149 441.176453,416.746124 
	C441.158447,334.250763 440.389709,251.746170 441.431335,169.264328 
	C441.879242,133.796066 460.402618,107.542023 492.534973,92.362892 
	C544.841003,67.653854 605.531372,98.921341 617.875427,156.278687 
	C628.850403,207.274704 592.486084,257.050751 540.547668,262.111633 
	C537.567383,262.402039 534.580688,262.657745 531.590942,262.813507 
	C524.117065,263.202789 518.965759,268.295746 519.262573,275.083710 
	C519.562500,281.942444 524.971619,286.989166 532.316772,286.692535 
	C546.886963,286.104187 561.217468,283.955505 574.593323,277.802612 
	C616.505188,258.523132 639.848633,226.013901 643.899048,179.890930 
	C643.971130,179.070007 644.067078,178.251205 644.270874,176.281860 
	C648.735718,178.580078 652.908569,180.391327 656.742126,182.753281 
	C695.619690,206.706680 710.026917,256.731873 690.022339,297.940857 
	C687.910400,302.291443 685.672424,306.564331 688.147156,311.674866 
	C690.579102,316.696869 694.971802,318.606873 699.850586,320.182159 
	C716.018982,325.402588 730.078430,333.909454 741.404602,346.784424 
	C775.468811,385.506561 770.369385,443.473572 730.000854,475.561310 
	C678.234375,516.708923 603.254822,490.657623 588.707886,426.213776 
	C586.451660,416.218384 586.766174,405.671234 585.113281,395.505798 
	C579.946777,363.730896 550.610291,341.045837 517.858826,343.109375 
	C486.666138,345.074677 460.172241,372.703613 459.263306,404.215240 
	C459.067657,410.997681 461.557770,415.712799 466.600555,417.746368 
	C471.415192,419.687927 476.168457,418.987549 479.398529,415.098877 
	C481.448975,412.630310 482.845734,408.948181 483.045013,405.718353 
	C484.676392,379.277069 506.835144,361.824280 532.732910,366.901154 
	C551.802185,370.639404 564.433899,387.135956 564.929443,408.903320 
	C565.621826,439.319122 576.781067,465.329224 598.198730,486.848877 
	C631.381042,520.189148 682.558899,528.938416 725.320740,508.770782 
	C726.810608,508.068115 728.303650,507.372192 730.158508,506.502808 
	C736.236572,514.136902 739.883301,522.787292 742.944824,531.743958 
	C751.123535,555.671082 746.566833,577.943970 733.068726,598.435913 
	C714.611450,626.456726 688.389771,641.873718 654.621826,642.784119 
	C638.943054,643.206787 623.997620,638.904663 609.767334,631.256470 
z"/>
<path fill="#767676" opacity="1.000000" stroke="none" 
	d="
M302.013855,713.062805 
	C253.281601,728.500000 206.098694,701.123962 190.934509,658.781616 
	C192.428879,658.027405 193.976669,657.195862 195.565460,656.451843 
	C239.903214,635.687439 263.204681,600.937439 264.914459,551.926758 
	C265.449341,536.594543 276.905060,524.301331 292.114166,523.137634 
	C308.094635,521.914795 321.289795,531.766907 324.109924,547.070190 
	C324.501617,549.195740 324.727600,551.354431 324.968262,553.504700 
	C325.761078,560.586914 331.072052,565.379028 337.642639,564.907654 
	C344.259552,564.433044 348.925995,559.040833 348.857635,551.948669 
	C348.655060,530.932312 334.987274,510.853760 315.626221,503.130310 
	C279.411530,488.683807 241.356339,513.752563 241.023376,552.716736 
	C240.643723,597.144958 213.619019,624.725525 175.989670,637.395996 
	C140.416061,649.374268 102.252731,633.848633 81.737938,607.413269 
	C60.186245,579.641785 57.285904,540.229431 75.119339,509.122223 
	C76.515862,506.686249 78.181824,504.404785 79.746971,502.014191 
	C86.638481,504.724182 93.117844,507.710510 99.864548,509.856323 
	C158.133606,528.389221 222.238312,493.803406 239.618423,434.019562 
	C242.647842,423.598969 243.687271,412.435822 244.384186,401.535004 
	C245.885666,378.049591 262.198059,361.255951 284.764282,361.013672 
	C307.409332,360.770538 324.532227,377.166290 325.951508,400.618164 
	C326.291565,406.236450 328.195068,410.700256 333.586517,413.015961 
	C337.993195,414.908752 342.526428,414.367035 345.581207,410.882324 
	C347.797516,408.354187 349.871216,404.526031 349.782715,401.339355 
	C349.110657,377.133087 338.257050,358.397949 317.184875,346.488037 
	C296.572662,334.838043 275.266357,335.001617 254.834091,347.016724 
	C233.800583,359.385315 223.313248,378.287964 222.907074,402.805786 
	C222.192780,445.922272 191.909317,481.595795 149.692108,489.284515 
	C110.247429,496.468262 62.451115,474.129364 48.112087,427.917511 
	C34.842510,385.152222 55.411140,339.818970 96.630379,320.979614 
	C100.557465,319.184692 104.618370,317.629944 108.722443,316.285004 
	C120.115379,312.551483 123.344574,304.939240 118.072311,294.234497 
	C95.100586,247.593033 117.390091,194.998001 162.032364,173.848724 
	C162.458023,173.647079 162.965118,173.617355 163.727921,173.438492 
	C164.438736,178.948578 164.964828,184.358749 165.853455,189.708725 
	C174.616302,242.465561 220.930634,282.208344 274.588287,283.082916 
	C282.999176,283.220001 288.483124,278.867767 288.847198,271.766571 
	C289.215515,264.583099 283.795410,259.548431 275.197266,259.087311 
	C230.716812,256.701904 196.373871,228.092026 189.673553,185.569016 
	C183.428162,145.933212 196.613846,111.854042 233.340515,92.507835 
	C287.514923,63.970829 354.570251,100.047852 361.142395,161.015884 
	C361.694794,166.140259 361.998199,171.318192 361.999725,176.471375 
	C362.044525,324.969727 361.871307,473.468567 362.313995,621.965576 
	C362.354187,635.454224 362.221008,648.416260 357.115448,660.987000 
	C346.723694,686.573425 328.401398,703.809814 302.013855,713.062805 
z"/>
</svg>